<svg xmlns="http://www.w3.org/2000/svg" width="224.88" viewBox="0 0 224.88 75" height="75" version="1.0"><defs><clipPath id="a"><path d="M 7.496094 11.503906 L 217.382812 11.503906 L 217.382812 56.480469 L 7.496094 56.480469 Z M 7.496094 11.503906"/></clipPath></defs><g clip-path="url(#a)"><path fill="#5CE1E6" d="M 180.074219 19.511719 C 183.191406 19.355469 186.289062 19.117188 189.394531 18.925781 C 195.621094 18.582031 201.789062 18.011719 207.980469 17.535156 C 207.679688 19.128906 207.394531 20.78125 208.292969 22.152344 C 208.292969 22.152344 209.25 22.027344 210.4375 21.796875 C 211.625 21.582031 213.050781 21.324219 214.003906 21.152344 C 222.050781 23.5 220.945312 29.027344 217.410156 33.472656 C 216.492188 34.414062 215.457031 35.472656 214.277344 36.554688 C 213.28125 36.578125 212.289062 36.601562 211.304688 36.621094 C 206.832031 36.746094 202.421875 36.960938 197.972656 37.335938 C 193.550781 37.605469 189.113281 37.964844 184.613281 38.363281 C 175.632812 39.0625 172.972656 39.855469 163.265625 39.976562 C 149.648438 39.761719 176.789062 38.914062 163.265625 39.976562 C 179.324219 39.410156 153.21875 41.132812 169.554688 40.238281 C 173.644531 40.035156 171.175781 39.828125 175.238281 39.625 C 179.3125 39.476562 183.367188 39.328125 187.398438 39.183594 C 191.445312 39.035156 195.449219 39.019531 199.464844 38.957031 C 203.492188 38.859375 207.46875 38.890625 211.464844 38.929688 C 208.457031 41.195312 204.804688 43.113281 200.382812 43.753906 C 189.832031 44.445312 179.429688 45.128906 169.117188 45.804688 C 169.066406 45.046875 161.054688 46.425781 153.964844 46.882812 C 146.882812 47.285156 139.902344 45.894531 132.875 46.054688 C 118.820312 46.429688 90.832031 50.789062 90.640625 51.289062 C 90.570312 51.296875 90.5 51.300781 90.433594 51.308594 C 90.5 51.300781 90.570312 51.296875 90.640625 51.289062 C 90.464844 51.730469 90.597656 52.050781 92.402344 51.925781 C 90.597656 52.050781 90.464844 51.730469 90.640625 51.289062 C 119.144531 48.539062 139.28125 47.234375 167.941406 45.890625 C 145.714844 47.378906 130.539062 49.132812 108.679688 50.949219 C 86.820312 52.753906 64.835938 54.582031 42.164062 55.972656 C 40.234375 56.089844 36.367188 56.328125 34.433594 56.445312 C 26.617188 54.648438 18.851562 54.347656 11.140625 54.789062 C 12.933594 50.914062 4.945312 43.835938 20.449219 44.445312 C 20.421875 43.695312 20.367188 42.1875 20.339844 41.4375 C 12.535156 40.003906 7.164062 36.722656 5.453125 33.34375 C 4.664062 31.664062 4.761719 29.914062 6.175781 28.359375 C 7.644531 26.792969 10.097656 25.429688 13.941406 24.457031 C 31.179688 20.449219 54.417969 22.058594 75.542969 19.121094 C 90.921875 17.339844 106.28125 15.484375 121.730469 15.792969 C 142.996094 16.40625 159.457031 13.695312 180.660156 14.371094 C 184.503906 14.308594 189.714844 13.289062 194.460938 12.535156 C 199.1875 11.730469 203.402344 11.082031 205.402344 11.945312 C 208.214844 12.636719 208.484375 14.210938 208.238281 16.046875 C 201.980469 16.800781 195.757812 17.664062 189.480469 18.257812 C 186.347656 18.578125 183.230469 18.9375 180.101562 19.207031 C 176.972656 19.464844 173.851562 19.722656 170.738281 19.980469"/></g><g fill="#FFBD59"><g><g><path d="M 20.441406 -5.679688 C 19.496094 -5.765625 18.464844 -5.808594 17.472656 -5.765625 C 14.503906 -5.59375 11.535156 -4.863281 8.695312 -4.003906 C 10.84375 -9.46875 11.921875 -15.277344 13.773438 -20.875 C 14.675781 -23.585938 15.664062 -26.597656 17.429688 -28.878906 C 17.816406 -29.394531 18.765625 -30.558594 19.582031 -30.34375 C 20.269531 -30.125 19.925781 -28.363281 19.796875 -27.890625 C 19.96875 -28.492188 20.703125 -30.945312 18.9375 -30.300781 C 17.042969 -29.609375 15.925781 -26.855469 15.191406 -25.175781 C 15.839844 -26.726562 16.570312 -28.449219 17.773438 -29.652344 C 18.292969 -30.125 19.539062 -31.074219 20.097656 -30.257812 C 20.617188 -29.480469 19.96875 -27.714844 19.753906 -26.984375 C 19.324219 -25.566406 18.765625 -24.144531 18.121094 -22.808594 C 18.121094 -22.894531 18.679688 -24.273438 18.636719 -24.273438 C 18.464844 -24.316406 16.957031 -21.175781 16.957031 -21.132812 L 17 -21.132812 C 16.957031 -21.046875 16.871094 -21.003906 16.871094 -21.003906 C 16.527344 -20.355469 17.214844 -20.054688 17.773438 -20.011719 C 18.636719 -19.925781 19.582031 -20.355469 20.269531 -20.875 C 22.078125 -22.25 23.628906 -25.480469 23.5 -27.757812 C 23.371094 -29.609375 22.679688 -30.945312 20.875 -31.933594 C 19.882812 -32.492188 18.636719 -32.925781 17.429688 -32.839844 C 15.710938 -32.753906 14.375 -31.632812 13.429688 -30.257812 C 12.695312 -29.136719 12.222656 -27.933594 11.792969 -26.726562 L 11.191406 -24.917969 C 11.019531 -24.445312 10.542969 -23.671875 10.628906 -23.199219 C 10.628906 -23.113281 10.933594 -23.757812 10.976562 -23.800781 C 10.714844 -22.984375 10.5 -22.121094 10.242188 -21.261719 C 10.199219 -21.304688 10.371094 -21.90625 10.328125 -21.90625 C 10.113281 -21.90625 9.382812 -19.152344 9.296875 -18.9375 C 8.867188 -17.386719 8.390625 -15.796875 8.21875 -14.160156 C 8.046875 -12.652344 7.832031 -11.277344 7.445312 -9.8125 C 7.273438 -8.996094 7.015625 -8.21875 6.800781 -7.402344 C 6.671875 -6.84375 5.980469 -5.292969 6.199219 -4.734375 C 6.242188 -4.691406 6.285156 -4.691406 6.328125 -4.734375 C 6.199219 -4.347656 6.15625 -4.003906 6.023438 -3.660156 C 6.023438 -3.660156 6.242188 -4.5625 6.199219 -4.5625 C 5.980469 -4.433594 5.9375 -3.398438 5.9375 -3.441406 C 5.679688 -2.753906 4.863281 -2.753906 4.21875 -2.453125 C 3.660156 -2.238281 3.183594 -1.894531 2.753906 -1.464844 C 1.851562 -0.558594 0.6875 1.03125 1.117188 2.453125 C 1.421875 3.484375 2.582031 3.746094 3.527344 3.613281 C 3.960938 3.527344 5.292969 3.097656 5.207031 2.539062 C 5.164062 2.453125 4.519531 2.882812 4.304688 2.96875 C 4.605469 2.753906 4.949219 2.453125 5.207031 2.195312 C 5.164062 2.324219 6.023438 1.378906 6.113281 1.25 C 6.585938 0.601562 7.144531 0.34375 7.832031 0 C 8.996094 -0.644531 10.199219 -1.25 11.449219 -1.679688 C 14.117188 -2.625 17.042969 -2.710938 19.582031 -4.003906 C 20.226562 -4.304688 21.949219 -5.507812 20.441406 -5.679688 Z M 11.363281 -24.402344 C 11.964844 -26.167969 12.738281 -27.804688 13.859375 -29.308594 C 14.761719 -30.558594 15.796875 -31.332031 17.171875 -31.632812 C 13.730469 -30.773438 12.523438 -26.039062 11.191406 -23.113281 C 10.757812 -22.078125 10.371094 -21.046875 10.027344 -19.925781 C 10.414062 -21.433594 10.890625 -22.894531 11.363281 -24.402344 Z M 13.644531 -21.046875 L 13.644531 -21.089844 L 13.644531 -21.003906 L 12.652344 -18.03125 C 12.953125 -19.066406 13.300781 -20.054688 13.644531 -21.089844 Z M 4.261719 3.011719 C 4.261719 3.011719 4.261719 2.96875 4.304688 2.96875 Z M 4.261719 3.011719" transform="translate(14.229 45.115)"/></g></g></g><g fill="#FFBD59"><g><g><path d="M 21.90625 -10.371094 C 21.863281 -11.320312 21.089844 -10.5 20.832031 -10.15625 C 20.269531 -9.339844 19.753906 -8.480469 19.238281 -7.660156 C 18.074219 -5.894531 16.914062 -4.132812 15.578125 -2.453125 C 11.148438 3.011719 14.246094 -6.714844 13.902344 -6.628906 C 13.730469 -6.585938 13.601562 -5.9375 13.558594 -5.808594 C 13.902344 -7.359375 14.546875 -9.210938 15.363281 -10.714844 C 15.839844 -11.664062 16.398438 -12.4375 15.535156 -13.472656 C 13.945312 -15.40625 12.09375 -13.644531 11.0625 -12.308594 C 10.628906 -13.945312 9.769531 -16.355469 7.660156 -16.355469 C 6.714844 -16.355469 6.15625 -15.882812 5.507812 -15.320312 C 5.121094 -15.0625 4.820312 -15.019531 4.476562 -14.71875 C 3.917969 -14.332031 3.527344 -13.730469 3.140625 -13.210938 C 1.679688 -11.0625 0.644531 -8.347656 0.171875 -5.851562 C -0.0429688 -4.648438 -0.128906 -3.3125 0.214844 -2.109375 C 0.429688 -1.421875 1.203125 0.128906 2.195312 0 C 2.238281 0 2.152344 -0.0429688 2.023438 -0.128906 C 2.625 0.0429688 3.3125 -0.0429688 3.832031 -0.386719 C 3.875 -0.300781 3.355469 -0.0859375 3.355469 -0.0859375 C 3.832031 0.644531 7.359375 -3.613281 7.617188 -4.003906 C 8.175781 -4.777344 8.566406 -5.59375 9.082031 -6.414062 C 9.46875 -7.015625 10.070312 -7.789062 10.5 -8.433594 C 10.457031 -8.132812 10.457031 -7.746094 10.457031 -7.746094 C 9.683594 -5.292969 8.953125 -2.625 9.984375 -0.0859375 C 10.457031 1.203125 11.621094 2.410156 13.082031 2.152344 C 14.375 1.9375 15.449219 0.6875 16.226562 -0.300781 C 17.171875 -1.421875 17.988281 -2.667969 18.808594 -3.960938 C 19.496094 -5.121094 20.140625 -6.285156 20.703125 -7.574219 C 21.046875 -8.390625 21.992188 -9.382812 21.90625 -10.371094 Z M 9.554688 -10.070312 C 9.339844 -9.769531 9.125 -9.46875 8.953125 -9.167969 L 7.832031 -7.574219 C 7.101562 -6.5 6.328125 -5.464844 5.507812 -4.476562 C 5.292969 -4.175781 4.261719 -2.839844 3.832031 -2.96875 C 3.183594 -3.183594 3.875 -5.421875 3.960938 -5.765625 C 4.089844 -6.371094 6.371094 -12.996094 6.972656 -13.125 C 6.199219 -13.167969 3.703125 -5.378906 3.570312 -4.734375 C 3.917969 -6.84375 4.691406 -8.910156 5.550781 -10.84375 C 6.023438 -11.835938 7.101562 -14.460938 8.523438 -14.460938 C 9.296875 -14.460938 9.46875 -12.867188 9.597656 -12.351562 C 9.554688 -12.4375 9.167969 -13.6875 9.125 -13.644531 C 8.910156 -13.472656 9.769531 -11.105469 9.769531 -10.757812 C 9.769531 -10.414062 9.769531 -10.414062 9.554688 -10.070312 Z M 10.542969 -7.960938 C 10.542969 -7.960938 10.671875 -8.566406 10.714844 -8.695312 L 10.933594 -8.996094 Z M 9.898438 -10.628906 L 9.898438 -11.0625 C 10.027344 -10.890625 10.027344 -10.757812 9.898438 -10.628906 Z M 9.898438 -10.628906" transform="translate(35.705 45.115)"/></g></g></g><g fill="#FFBD59"><g><g><path d="M 29.179688 -31.546875 C 29.007812 -31.375 27.804688 -31.289062 27.542969 -31.246094 C 26.210938 -30.988281 24.875 -30.816406 23.585938 -30.644531 C 21.003906 -30.300781 18.292969 -30.34375 15.753906 -29.910156 C 15.796875 -31.246094 13.558594 -33.398438 12.566406 -31.761719 C 12.265625 -31.289062 12.179688 -30.644531 12.007812 -30.125 C 11.835938 -29.566406 11.835938 -29.652344 11.363281 -29.523438 C 11.019531 -29.394531 10.5 -29.394531 10.15625 -29.394531 C 9.554688 -29.308594 8.996094 -29.308594 8.390625 -29.265625 C 7.617188 -29.222656 6.757812 -29.265625 6.457031 -28.40625 C 5.722656 -26.125 9.253906 -26.039062 10.585938 -26.125 C 10.371094 -25.523438 10.199219 -24.917969 9.941406 -24.273438 C 9.898438 -24.101562 9.382812 -22.550781 9.46875 -22.550781 L 9.726562 -22.894531 C 9.125 -21.261719 8.089844 -19.496094 7.359375 -17.773438 C 6.929688 -16.742188 6.585938 -15.753906 6.242188 -14.71875 C 5.980469 -13.902344 5.980469 -13.816406 5.121094 -13.601562 L 3.832031 -13.386719 C 3.527344 -13.34375 3.140625 -13.300781 2.882812 -13.039062 C 1.765625 -11.835938 3.917969 -10.890625 4.90625 -10.933594 C 4.648438 -10.242188 1.722656 -2.667969 1.679688 -2.667969 C 1.679688 -2.625 1.980469 -3.226562 2.324219 -4.089844 L 0.945312 -0.601562 C 0.945312 -0.6875 0.988281 -0.773438 0.988281 -0.816406 C 0.816406 -0.816406 0.171875 0.988281 0.300781 0.988281 L 0.472656 0.816406 C 0.257812 1.335938 -0.0859375 1.507812 0 2.238281 C 0.128906 3.011719 0.644531 3.660156 1.292969 4.089844 C 1.851562 4.476562 3.054688 5.164062 3.746094 4.949219 C 4.390625 4.734375 3.917969 4.777344 4.175781 4.476562 C 5.207031 3.3125 5.421875 1.421875 5.9375 -0.128906 C 6.070312 -0.558594 7.703125 -5.636719 7.660156 -5.679688 L 7.488281 -5.507812 C 7.617188 -5.851562 7.746094 -6.285156 7.917969 -6.671875 C 7.960938 -6.628906 7.789062 -6.328125 7.875 -6.328125 C 8.132812 -6.285156 9.125 -9.253906 9.210938 -9.46875 C 9.425781 -10.113281 9.382812 -11.019531 9.683594 -11.621094 C 9.984375 -12.179688 10.414062 -12.136719 11.019531 -12.179688 C 11.578125 -12.222656 11.964844 -12.4375 12.308594 -12.609375 C 12.824219 -12.824219 13.472656 -12.738281 13.988281 -12.867188 C 14.675781 -13.039062 15.320312 -13.125 16.011719 -13.300781 C 16.742188 -13.429688 17 -13.730469 17.515625 -13.859375 C 18.074219 -13.988281 19.625 -13.902344 19.796875 -14.675781 C 19.96875 -15.492188 19.324219 -14.976562 19.238281 -14.976562 C 17.859375 -14.890625 16.484375 -15.105469 15.105469 -14.976562 C 13.644531 -14.890625 12.222656 -14.761719 10.757812 -14.632812 C 10.757812 -14.675781 10.933594 -15.578125 10.714844 -15.191406 L 10.84375 -15.535156 L 10.84375 -15.40625 C 10.933594 -15.40625 11.449219 -17.085938 11.621094 -17.34375 C 12.222656 -18.464844 12.652344 -19.796875 13.039062 -21.046875 C 13.429688 -22.335938 13.773438 -23.628906 14.160156 -24.875 L 14.503906 -25.824219 C 14.71875 -26.46875 14.589844 -26.382812 15.148438 -26.554688 C 15.664062 -26.683594 16.398438 -26.726562 16.914062 -26.769531 C 19.195312 -26.941406 21.304688 -27.542969 23.585938 -28.148438 C 24.144531 -28.277344 25.132812 -28.492188 25.609375 -28.878906 C 26.039062 -29.222656 25.953125 -29.308594 26.511719 -29.480469 C 26.8125 -29.566406 29.910156 -31.117188 29.179688 -31.546875 Z M 8.738281 -11.320312 C 8.175781 -9.554688 7.574219 -7.746094 6.929688 -5.980469 C 6.371094 -4.5625 5.59375 -3.183594 5.078125 -1.765625 C 6.15625 -4.992188 7.53125 -8.175781 8.738281 -11.40625 L 8.738281 -11.363281 C 8.695312 -11.191406 8.695312 -11.234375 8.738281 -11.320312 Z M 5.078125 -10.976562 L 4.519531 -9.640625 C 4.691406 -10.15625 4.949219 -10.933594 5.078125 -10.976562 Z M 8.78125 -11.535156 L 8.78125 -11.492188 C 8.738281 -11.449219 8.738281 -11.449219 8.738281 -11.40625 C 8.738281 -11.449219 8.738281 -11.492188 8.78125 -11.535156 Z M 8.78125 -11.535156 C 8.78125 -11.578125 8.78125 -11.621094 8.824219 -11.664062 L 8.824219 -11.621094 C 8.824219 -11.621094 8.78125 -11.578125 8.78125 -11.535156 Z M 8.78125 -11.535156" transform="translate(54.47 45.115)"/></g></g></g><g fill="#FFBD59"><g><g><path d="M 21.90625 -10.371094 C 21.863281 -11.320312 21.089844 -10.5 20.832031 -10.15625 C 20.269531 -9.339844 19.753906 -8.480469 19.238281 -7.660156 C 18.074219 -5.894531 16.914062 -4.132812 15.578125 -2.453125 C 11.148438 3.011719 14.246094 -6.714844 13.902344 -6.628906 C 13.730469 -6.585938 13.601562 -5.9375 13.558594 -5.808594 C 13.902344 -7.359375 14.546875 -9.210938 15.363281 -10.714844 C 15.839844 -11.664062 16.398438 -12.4375 15.535156 -13.472656 C 13.945312 -15.40625 12.09375 -13.644531 11.0625 -12.308594 C 10.628906 -13.945312 9.769531 -16.355469 7.660156 -16.355469 C 6.714844 -16.355469 6.15625 -15.882812 5.507812 -15.320312 C 5.121094 -15.0625 4.820312 -15.019531 4.476562 -14.71875 C 3.917969 -14.332031 3.527344 -13.730469 3.140625 -13.210938 C 1.679688 -11.0625 0.644531 -8.347656 0.171875 -5.851562 C -0.0429688 -4.648438 -0.128906 -3.3125 0.214844 -2.109375 C 0.429688 -1.421875 1.203125 0.128906 2.195312 0 C 2.238281 0 2.152344 -0.0429688 2.023438 -0.128906 C 2.625 0.0429688 3.3125 -0.0429688 3.832031 -0.386719 C 3.875 -0.300781 3.355469 -0.0859375 3.355469 -0.0859375 C 3.832031 0.644531 7.359375 -3.613281 7.617188 -4.003906 C 8.175781 -4.777344 8.566406 -5.59375 9.082031 -6.414062 C 9.46875 -7.015625 10.070312 -7.789062 10.5 -8.433594 C 10.457031 -8.132812 10.457031 -7.746094 10.457031 -7.746094 C 9.683594 -5.292969 8.953125 -2.625 9.984375 -0.0859375 C 10.457031 1.203125 11.621094 2.410156 13.082031 2.152344 C 14.375 1.9375 15.449219 0.6875 16.226562 -0.300781 C 17.171875 -1.421875 17.988281 -2.667969 18.808594 -3.960938 C 19.496094 -5.121094 20.140625 -6.285156 20.703125 -7.574219 C 21.046875 -8.390625 21.992188 -9.382812 21.90625 -10.371094 Z M 9.554688 -10.070312 C 9.339844 -9.769531 9.125 -9.46875 8.953125 -9.167969 L 7.832031 -7.574219 C 7.101562 -6.5 6.328125 -5.464844 5.507812 -4.476562 C 5.292969 -4.175781 4.261719 -2.839844 3.832031 -2.96875 C 3.183594 -3.183594 3.875 -5.421875 3.960938 -5.765625 C 4.089844 -6.371094 6.371094 -12.996094 6.972656 -13.125 C 6.199219 -13.167969 3.703125 -5.378906 3.570312 -4.734375 C 3.917969 -6.84375 4.691406 -8.910156 5.550781 -10.84375 C 6.023438 -11.835938 7.101562 -14.460938 8.523438 -14.460938 C 9.296875 -14.460938 9.46875 -12.867188 9.597656 -12.351562 C 9.554688 -12.4375 9.167969 -13.6875 9.125 -13.644531 C 8.910156 -13.472656 9.769531 -11.105469 9.769531 -10.757812 C 9.769531 -10.414062 9.769531 -10.414062 9.554688 -10.070312 Z M 10.542969 -7.960938 C 10.542969 -7.960938 10.671875 -8.566406 10.714844 -8.695312 L 10.933594 -8.996094 Z M 9.898438 -10.628906 L 9.898438 -11.0625 C 10.027344 -10.890625 10.027344 -10.757812 9.898438 -10.628906 Z M 9.898438 -10.628906" transform="translate(73.235 45.115)"/></g></g></g><g fill="#FFBD59"><g><g><path d="M 21.863281 -10.542969 L 21.863281 -10.585938 L 21.820312 -10.585938 C 21.304688 -11.320312 20.53125 -10.15625 20.011719 -9.769531 C 18.894531 -8.867188 17.730469 -8.132812 16.527344 -7.359375 C 16.570312 -7.574219 16.570312 -9.898438 16.441406 -9.8125 C 16.355469 -9.683594 16.355469 -9.554688 16.355469 -9.425781 C 16.269531 -10.800781 16.054688 -12.566406 14.375 -13.082031 C 13.730469 -13.300781 13.125 -13.125 12.523438 -12.867188 C 10.84375 -12.09375 9.425781 -10.457031 8.21875 -9.167969 C 7.1875 -8.046875 6.242188 -6.84375 5.378906 -5.59375 C 5.851562 -6.199219 6.371094 -6.757812 6.800781 -7.230469 C 5.851562 -6.023438 4.949219 -4.734375 4.261719 -3.355469 L 4.433594 -4.046875 L 4.347656 -3.832031 C 4.691406 -6.15625 5.121094 -8.480469 5.636719 -10.757812 C 5.851562 -11.835938 5.980469 -13.429688 6.542969 -14.375 C 6.972656 -15.148438 8.304688 -15.234375 8.78125 -16.011719 C 8.78125 -16.011719 8.652344 -15.925781 8.480469 -15.839844 C 9.082031 -16.3125 9.640625 -16.828125 10.199219 -17.300781 C 10.199219 -17.257812 9.769531 -16.828125 9.769531 -16.828125 C 10.070312 -16.613281 12.480469 -19.152344 12.695312 -19.410156 C 13.730469 -20.484375 14.71875 -21.648438 15.492188 -22.984375 C 16.183594 -24.1875 16.957031 -25.347656 17.601562 -26.554688 C 18.03125 -27.242188 18.378906 -27.933594 18.722656 -28.664062 C 18.9375 -29.179688 19.539062 -30.257812 19.410156 -30.859375 C 19.367188 -30.902344 19.324219 -30.902344 19.28125 -30.859375 L 19.539062 -31.890625 C 19.539062 -31.890625 19.453125 -31.074219 19.410156 -31.03125 C 19.625 -31.203125 19.582031 -32.105469 19.582031 -32.105469 C 20.097656 -34.558594 20.097656 -39.464844 16.613281 -39.636719 C 14.804688 -39.679688 13.34375 -38.046875 12.308594 -36.796875 C 11.105469 -35.292969 10.070312 -33.613281 9.167969 -31.890625 C 7.488281 -28.921875 6.199219 -25.738281 4.90625 -22.59375 C 3.441406 -18.980469 2.152344 -15.234375 1.292969 -11.449219 C 0.730469 -9.210938 0.300781 -6.972656 0.128906 -4.691406 C 0.0859375 -4.132812 -0.300781 -1.074219 0.472656 -0.773438 C 0.472656 -0.730469 0.472656 -0.902344 0.429688 -1.160156 C 0.472656 -0.945312 0.558594 -0.816406 0.644531 -0.644531 C 0.601562 -0.644531 0.859375 0 0.859375 0 C 1.074219 0.386719 1.378906 0.773438 1.765625 1.03125 C 2.496094 1.550781 3.484375 1.808594 4.003906 0.945312 C 4.433594 0.257812 4.605469 -0.902344 4.992188 -1.679688 C 5.121094 -2.023438 5.292969 -2.367188 5.464844 -2.710938 C 5.421875 -2.925781 5.464844 -3.097656 5.636719 -3.226562 C 5.722656 -3.183594 5.808594 -3.226562 5.9375 -3.3125 C 6.585938 -4.046875 6.972656 -5.035156 7.488281 -5.894531 C 7.703125 -6.242188 10.5 -9.941406 10.84375 -10.113281 C 10.800781 -10.113281 10.757812 -10.113281 10.714844 -10.070312 C 10.976562 -10.328125 11.191406 -10.5 11.492188 -10.714844 C 11.535156 -10.628906 11.277344 -10.5 11.320312 -10.457031 C 11.320312 -10.457031 12.867188 -11.019531 13.039062 -11.019531 C 13.601562 -10.890625 13.515625 -9.984375 13.472656 -9.554688 C 13.386719 -8.910156 13.082031 -8.304688 12.78125 -7.746094 C 12.609375 -7.402344 12.308594 -7.015625 12.222656 -6.671875 C 12.222656 -6.628906 11.964844 -5.9375 12.222656 -6.242188 L 12.09375 -6.023438 C 11.964844 -5.808594 11.148438 -4.734375 10.976562 -4.605469 C 10.242188 -3.917969 9.683594 -3.097656 8.996094 -2.410156 C 8.132812 -1.550781 6.199219 -1.160156 7.488281 0.429688 C 9.8125 3.269531 13.386719 -1.203125 14.632812 -3.011719 C 15.320312 -4.046875 16.183594 -4.949219 16.914062 -5.808594 C 17.171875 -6.113281 17.644531 -6.5 17.988281 -6.714844 C 18.121094 -6.800781 18.335938 -6.800781 18.464844 -6.929688 C 18.808594 -7.273438 18.851562 -7.445312 19.152344 -7.746094 C 19.710938 -8.304688 20.660156 -8.480469 21.175781 -9.125 C 21.261719 -9.253906 21.261719 -9.339844 21.132812 -9.46875 C 21.175781 -9.554688 21.261719 -9.554688 21.347656 -9.511719 L 21.605469 -9.640625 C 21.820312 -9.941406 22.121094 -10.113281 21.863281 -10.542969 Z M 17.042969 -37.703125 C 18.421875 -37.703125 18.25 -34.085938 18.207031 -33.3125 C 18.121094 -32.0625 17.816406 -30.816406 17.386719 -29.652344 C 17.085938 -28.75 16.742188 -27.371094 16.183594 -26.640625 C 15.0625 -25.175781 13.816406 -23.5 12.609375 -21.992188 C 11.0625 -20.054688 9.210938 -18.421875 7.273438 -16.871094 C 8.046875 -19.453125 8.953125 -22.035156 9.941406 -24.574219 C 10.199219 -25.175781 12.695312 -31.71875 13.039062 -32.019531 C 12.953125 -31.976562 12.867188 -31.890625 12.78125 -31.761719 C 13.515625 -33.355469 14.289062 -34.945312 15.40625 -36.367188 L 14.847656 -35.335938 C 15.277344 -35.851562 16.957031 -37.746094 17.042969 -37.617188 C 17 -37.703125 16.699219 -37.617188 16.570312 -37.53125 C 16.699219 -37.660156 16.871094 -37.703125 17.042969 -37.703125 Z M 8.566406 -29.824219 C 9.554688 -31.71875 10.585938 -33.484375 11.921875 -35.207031 C 12.78125 -36.367188 14.03125 -37.746094 15.578125 -38.261719 C 14.074219 -37.746094 13.039062 -36.410156 12.136719 -35.164062 C 10.890625 -33.441406 9.855469 -31.632812 8.78125 -29.78125 C 7.144531 -26.984375 5.851562 -24.015625 4.734375 -21.046875 C 5.808594 -24.015625 7.058594 -26.984375 8.566406 -29.824219 Z M 11.40625 -4.21875 C 10.671875 -3.226562 9.597656 -1.980469 8.523438 -1.378906 C 9.082031 -1.722656 9.511719 -2.367188 10.070312 -3.011719 C 10.84375 -4.003906 11.578125 -4.992188 12.308594 -6.023438 C 12.652344 -6.5 13.644531 -8.261719 13.945312 -9.640625 C 13.644531 -7.703125 12.4375 -5.808594 11.40625 -4.21875 Z M 7.058594 -16.699219 L 7.058594 -16.785156 L 7.101562 -16.871094 C 7.101562 -16.914062 7.144531 -16.957031 7.144531 -17.042969 C 7.144531 -17.085938 7.144531 -17.128906 7.1875 -17.171875 L 7.1875 -17.214844 L 7.746094 -18.980469 L 7.53125 -18.207031 C 7.445312 -17.859375 7.316406 -16.914062 7.058594 -16.699219 Z M 8.996094 -22.507812 C 9.683594 -24.316406 10.371094 -26.125 11.105469 -27.890625 Z M 4.476562 -4.089844 L 5.378906 -5.59375 C 5.035156 -5.121094 4.691406 -4.605469 4.476562 -4.089844 Z M 7.058594 -16.699219 L 7.058594 -16.785156 L 7.101562 -16.828125 C 7.101562 -16.785156 7.058594 -16.742188 7.058594 -16.699219 Z M 8.046875 -8.78125 C 8.046875 -8.738281 8.003906 -8.738281 8.003906 -8.738281 Z M 8.046875 -8.78125" transform="translate(92 45.115)"/></g></g></g><g fill="#FFBD59"><g><g><path d="M 17.644531 -10.457031 C 17.386719 -11.578125 16.355469 -10.070312 16.140625 -9.8125 L 13.773438 -6.628906 L 11.449219 -3.570312 L 10.199219 -1.980469 C 10.070312 -1.808594 9.125 -0.601562 9.210938 -0.601562 C 9.296875 -0.6875 9.425781 -0.6875 9.554688 -0.816406 C 8.910156 -0.128906 6.542969 2.023438 6.113281 1.507812 C 5.765625 1.074219 6.714844 -0.730469 6.84375 -1.160156 C 7.316406 -2.410156 7.746094 -3.703125 8.261719 -4.90625 C 8.824219 -6.15625 9.46875 -7.402344 9.984375 -8.652344 C 10.5 -9.984375 9.726562 -10.457031 8.480469 -10.757812 C 7.917969 -10.890625 7.230469 -10.890625 6.585938 -10.976562 C 6.585938 -10.933594 6.628906 -10.933594 6.628906 -10.933594 C 7.1875 -10.84375 8.003906 -10.800781 8.695312 -10.585938 C 7.660156 -10.890625 6.371094 -10.757812 5.550781 -10.976562 C 4.992188 -11.105469 4.648438 -11.105469 4.734375 -11.75 C 4.820312 -12.609375 5.722656 -13.515625 6.023438 -14.332031 C 6.023438 -14.289062 5.722656 -13.515625 5.765625 -13.515625 C 5.980469 -13.429688 6.328125 -14.632812 6.328125 -14.804688 C 6.285156 -15.019531 5.765625 -15.664062 5.722656 -15.40625 L 5.808594 -15.277344 C 3.746094 -16.699219 1.292969 -13.773438 1.722656 -11.664062 C 1.808594 -11.363281 1.980469 -11.191406 2.109375 -10.84375 C 2.195312 -10.585938 2.109375 -10.285156 2.367188 -9.941406 C 3.269531 -8.824219 4.90625 -8.78125 6.199219 -9.039062 C 5.980469 -8.738281 3.703125 -3.917969 3.832031 -3.875 L 3.527344 -2.796875 C 3.484375 -2.839844 3.660156 -3.183594 3.570312 -3.183594 C 3.269531 -3.226562 2.667969 -0.730469 2.625 -0.515625 C 2.453125 0.515625 2.496094 1.421875 2.925781 2.367188 C 3.183594 2.96875 3.484375 3.484375 4.046875 3.832031 C 4.5625 4.175781 5.207031 4.347656 5.808594 4.21875 C 6.023438 4.132812 6.84375 3.570312 6.628906 3.613281 L 6.929688 3.484375 C 6.886719 3.527344 6.84375 3.570312 6.84375 3.613281 C 6.972656 3.660156 8.953125 2.066406 9.210938 1.894531 C 10.585938 0.730469 11.707031 -0.6875 12.738281 -2.109375 C 13.773438 -3.570312 14.847656 -5.035156 15.839844 -6.5 C 16.3125 -7.1875 16.742188 -7.875 17.085938 -8.609375 C 17.34375 -9.125 17.773438 -9.855469 17.644531 -10.457031 Z M 4.777344 -5.292969 C 5.078125 -6.070312 5.421875 -6.800781 5.808594 -7.53125 C 5.894531 -7.660156 6.5 -9.210938 6.800781 -9.296875 C 6.585938 -9.167969 5.679688 -7.058594 5.464844 -6.671875 L 4.648438 -4.777344 C 4.21875 -3.746094 3.746094 -2.667969 3.441406 -1.550781 C 3.746094 -2.839844 4.261719 -4.089844 4.777344 -5.292969 Z M 3.746094 2.96875 C 4.003906 3.3125 4.347656 3.660156 4.820312 3.832031 C 4.433594 3.703125 4.089844 3.484375 3.832031 3.226562 C 3.875 3.226562 3.875 3.269531 3.875 3.3125 C 3.613281 2.96875 3.269531 2.238281 3.226562 2.109375 C 3.097656 1.59375 3.054688 0.988281 3.097656 0.472656 C 3.097656 0.0429688 3.140625 -0.300781 3.226562 -0.6875 L 3.226562 -0.644531 C 3.140625 -0.0859375 3.097656 0.472656 3.140625 1.074219 L 3.140625 1.292969 C 3.097656 1.25 3.097656 1.203125 3.097656 1.203125 C 3.097656 1.203125 3.097656 1.25 3.140625 1.335938 L 3.140625 1.378906 L 3.3125 2.28125 L 3.183594 1.722656 C 3.269531 1.980469 3.484375 2.453125 3.703125 2.925781 L 3.660156 2.882812 C 3.660156 2.925781 3.703125 2.96875 3.746094 3.011719 Z M 4.949219 -11.234375 C 5.164062 -11.0625 5.550781 -11.019531 5.9375 -10.976562 C 5.59375 -11.019531 5.292969 -11.105469 5.078125 -11.277344 C 5.078125 -11.277344 4.820312 -11.492188 4.777344 -11.578125 C 4.777344 -11.492188 4.863281 -11.277344 4.949219 -11.234375 Z M 9.46875 -7.875 L 8.566406 -5.980469 L 9.46875 -7.917969 Z M 3.269531 -0.816406 C 3.269531 -0.773438 3.226562 -0.730469 3.226562 -0.6875 L 3.226562 -0.730469 C 3.226562 -0.773438 3.269531 -0.773438 3.269531 -0.816406 Z M 9.511719 -8.003906 L 9.511719 -7.960938 L 9.46875 -7.960938 Z M 9.511719 -8.003906 L 9.511719 -7.960938 L 9.46875 -7.960938 Z M 3.3125 -1.378906 C 3.3125 -1.421875 3.355469 -1.464844 3.355469 -1.550781 C 3.355469 -1.464844 3.3125 -1.421875 3.3125 -1.378906 Z M 3.484375 2.582031 C 3.484375 2.582031 3.527344 2.625 3.527344 2.667969 C 3.527344 2.625 3.484375 2.625 3.484375 2.582031 Z M 4.820312 -11.664062 C 4.777344 -11.664062 4.777344 -11.621094 4.777344 -11.621094 Z M 4.820312 -11.664062" transform="translate(110.807 45.115)"/></g></g></g><g fill="#FFBD59"><g><g><path d="M 11.277344 -10.585938 C 11.191406 -11.148438 10.585938 -10.976562 10.285156 -10.757812 C 9.898438 -10.5 7.746094 -7.660156 7.917969 -7.445312 C 8.046875 -7.445312 8.132812 -7.445312 8.21875 -7.53125 C 7.617188 -6.800781 6.5 -5.980469 5.679688 -5.335938 C 5.207031 -4.949219 4.046875 -3.875 3.355469 -4.21875 C 1.894531 -4.949219 4.863281 -10.113281 4.734375 -10.15625 C 4.605469 -10.199219 3.527344 -7.789062 3.3125 -7.230469 C 3.832031 -8.738281 4.519531 -10.242188 5.335938 -11.578125 C 5.292969 -11.449219 5.164062 -11.234375 5.25 -11.234375 C 5.335938 -11.191406 5.980469 -12.09375 5.851562 -12.179688 C 5.808594 -12.179688 5.722656 -12.179688 5.679688 -12.136719 C 5.808594 -12.265625 6.023438 -12.308594 6.023438 -12.566406 C 6.023438 -12.996094 5.035156 -13.429688 4.691406 -13.558594 C 3.875 -13.902344 3.054688 -13.988281 2.410156 -13.558594 C 1.550781 -13.039062 1.378906 -12.007812 1.03125 -11.105469 C 0.945312 -10.84375 0.128906 -7.789062 0.300781 -7.746094 C 0.386719 -7.789062 0.386719 -7.832031 0.429688 -7.917969 L 0.300781 -7.144531 C 0.257812 -7.144531 0.34375 -7.359375 0.257812 -7.359375 C -0.0859375 -7.359375 0 -5.808594 0.0429688 -5.59375 C 0.214844 -4.820312 0.816406 -4.261719 1.292969 -3.613281 C 1.550781 -3.226562 1.808594 -2.839844 2.195312 -2.582031 C 2.710938 -2.195312 2.367188 -2.582031 2.710938 -2.410156 L 2.625 -2.410156 C 2.582031 -2.152344 4.21875 -1.722656 4.5625 -1.765625 C 6.070312 -2.109375 7.144531 -3.960938 8.003906 -5.121094 C 8.824219 -6.15625 9.511719 -7.1875 10.242188 -8.261719 C 10.671875 -8.824219 11.449219 -9.769531 11.277344 -10.585938 Z M 3.746094 -16.011719 C 3.832031 -15.882812 3.703125 -15.710938 4.003906 -15.535156 C 4.304688 -15.40625 4.476562 -15.578125 4.734375 -15.664062 C 5.25 -15.882812 5.636719 -16.441406 6.023438 -16.785156 C 6.15625 -16.871094 5.894531 -16.828125 5.894531 -16.828125 C 6.457031 -17.34375 5.980469 -16.742188 6.5 -17.042969 C 7.015625 -17.386719 7.101562 -17.945312 7.53125 -18.421875 C 7.015625 -18.207031 6.628906 -17.902344 6.285156 -17.472656 C 5.851562 -16.914062 5.550781 -16.65625 5.078125 -16.355469 C 5.59375 -16.742188 5.851562 -17.128906 6.285156 -17.816406 C 6.414062 -17.945312 6.542969 -18.03125 6.714844 -18.121094 C 6.585938 -18.25 6.585938 -18.378906 6.757812 -18.507812 C 6.886719 -18.722656 7.144531 -18.808594 7.273438 -19.023438 C 7.488281 -19.324219 7.445312 -19.710938 7.703125 -20.011719 C 7.917969 -20.183594 8.21875 -20.3125 8.390625 -20.484375 C 8.78125 -20.832031 9.210938 -21.476562 9.039062 -22.035156 C 8.867188 -22.550781 8.433594 -23.199219 7.960938 -23.5 C 7.402344 -23.800781 6.628906 -23.929688 6.023438 -23.671875 C 5.894531 -23.628906 5.378906 -23.5 5.550781 -23.328125 C 5.59375 -23.242188 5.636719 -23.242188 5.722656 -23.242188 C 5.335938 -22.9375 4.691406 -22.421875 5.59375 -22.078125 C 5.507812 -21.992188 5.59375 -21.605469 5.59375 -21.5625 C 5.550781 -21.261719 4.949219 -19.667969 4.5625 -18.894531 L 5.078125 -19.667969 C 4.777344 -19.023438 4.433594 -18.421875 4.046875 -17.902344 C 4.304688 -18.464844 3.789062 -17.816406 3.789062 -17.6875 C 3.3125 -17.902344 3.441406 -16.570312 3.484375 -16.441406 C 3.484375 -16.398438 3.746094 -16.011719 3.746094 -16.011719 Z M 2.925781 -5.765625 L 2.925781 -5.722656 L 2.839844 -5.464844 L 2.925781 -5.808594 C 2.96875 -5.851562 2.96875 -5.851562 2.925781 -5.765625 Z M 4.347656 -18.550781 C 4.347656 -18.550781 4.433594 -18.636719 4.519531 -18.808594 Z M 3.917969 -17.730469 C 3.917969 -17.6875 3.917969 -17.6875 3.875 -17.644531 C 3.875 -17.644531 3.875 -17.6875 3.832031 -17.6875 C 3.875 -17.6875 3.875 -17.6875 3.917969 -17.730469 Z M 3.917969 -17.730469" transform="translate(125.311 45.115)"/></g></g></g><g fill="#FFBD59"><g><g><path d="M 22.765625 -10.414062 C 22.722656 -11.191406 22.164062 -10.976562 21.777344 -10.628906 C 21.5625 -10.414062 18.765625 -7.316406 18.894531 -7.101562 C 18.980469 -7.101562 19.109375 -7.101562 19.195312 -7.1875 C 18.378906 -6.371094 17.085938 -5.59375 16.097656 -4.863281 C 15.105469 -4.089844 13.988281 -2.667969 12.609375 -2.582031 C 12.480469 -2.582031 12.351562 -2.539062 12.179688 -2.582031 C 11.578125 -2.667969 10.113281 -5.292969 9.984375 -5.851562 C 10.027344 -5.421875 11.019531 -3.484375 11.277344 -3.054688 C 10.285156 -4.175781 9.769531 -5.851562 9.511719 -7.359375 C 9.554688 -7.230469 9.640625 -7.101562 9.683594 -7.101562 C 9.8125 -7.144531 9.640625 -8.003906 9.640625 -8.046875 C 9.726562 -8.132812 10.371094 -8.304688 10.542969 -8.390625 C 11.492188 -8.78125 12.394531 -9.253906 13.300781 -9.769531 C 14.976562 -10.671875 16.65625 -11.75 18.03125 -13.082031 C 19.539062 -14.589844 20.832031 -16.699219 18.851562 -18.421875 C 16.871094 -20.097656 14.074219 -17.859375 12.566406 -16.527344 C 11.105469 -15.234375 9.855469 -13.730469 8.695312 -12.179688 C 8.175781 -11.40625 7.617188 -10.671875 7.144531 -9.898438 C 6.84375 -9.46875 5.894531 -8.390625 5.980469 -7.875 C 5.980469 -7.875 6.800781 -8.867188 6.84375 -8.910156 C 6.542969 -8.480469 6.242188 -8.003906 5.980469 -7.53125 C 5.980469 -7.574219 5.292969 -6.628906 5.207031 -6.457031 L 4.046875 -4.433594 C 4.519531 -6.457031 5.078125 -8.480469 5.679688 -10.5 C 5.980469 -11.535156 6.242188 -12.136719 6.929688 -12.953125 C 7.53125 -13.6875 8.132812 -14.417969 8.695312 -15.148438 C 9.984375 -16.785156 11.148438 -18.550781 12.308594 -20.3125 C 13.167969 -21.605469 13.816406 -23.285156 14.804688 -24.359375 C 16.011719 -25.78125 17.042969 -27.671875 17.644531 -29.480469 C 17.988281 -30.472656 17.859375 -31.289062 17.386719 -32.277344 C 16.484375 -34.042969 14.675781 -35.636719 12.695312 -34.730469 C 11.0625 -34 9.898438 -32.320312 9.039062 -30.816406 C 8.480469 -29.867188 7.960938 -28.878906 7.53125 -27.847656 L 6.671875 -26.039062 C 6.542969 -25.695312 6.414062 -25.132812 6.285156 -24.832031 C 6.285156 -24.789062 6.242188 -24.746094 6.242188 -24.746094 C 5.894531 -23.886719 5.636719 -23.070312 5.335938 -22.207031 C 5.292969 -22.25 5.550781 -23.070312 5.550781 -23.070312 C 5.335938 -23.070312 4.648438 -21.003906 4.5625 -20.746094 C 4.175781 -19.710938 3.832031 -18.679688 3.484375 -17.601562 C 2.839844 -15.664062 2.324219 -13.6875 1.9375 -11.664062 C 1.59375 -9.46875 0.945312 -7.316406 0.472656 -5.164062 C 0.300781 -4.21875 0 -3.269531 0 -2.324219 C 0 -1.808594 0.0859375 -1.25 0.386719 -0.816406 C 0.472656 -0.730469 1.203125 -0.128906 1.203125 -0.171875 C 1.203125 -0.171875 1.160156 -0.214844 1.160156 -0.257812 C 1.378906 -0.0859375 1.808594 0.0429688 2.152344 0.0859375 C 1.851562 0.0859375 1.464844 0.0429688 1.378906 -0.0859375 C 1.679688 0.34375 2.839844 0.0429688 2.925781 0.0429688 C 3.917969 -0.171875 4.132812 -1.550781 4.648438 -2.324219 L 6.714844 -5.765625 C 6.886719 -4.863281 7.230469 -3.832031 7.660156 -3.054688 C 7.746094 -2.839844 8.996094 -1.117188 9.082031 -1.203125 C 9.082031 -1.25 9.039062 -1.335938 9.039062 -1.378906 C 9.210938 -1.160156 9.382812 -0.988281 9.597656 -0.859375 C 9.554688 -0.816406 9.425781 -0.988281 9.382812 -0.902344 C 9.125 -0.515625 10.976562 0.128906 11.277344 0.128906 C 11.878906 0.0859375 12.394531 -0.34375 12.953125 -0.558594 C 13.429688 -0.773438 13.902344 -0.945312 14.332031 -1.292969 C 14.847656 -1.722656 14.289062 -1.464844 14.632812 -1.722656 L 14.632812 -1.636719 C 14.761719 -1.808594 16.699219 -2.882812 16.785156 -2.96875 C 17.773438 -3.703125 18.550781 -4.691406 19.410156 -5.59375 C 20.140625 -6.328125 20.746094 -7.144531 21.347656 -7.917969 C 21.992188 -8.652344 22.851562 -9.253906 22.765625 -10.371094 Z M 13.429688 -31.417969 C 13.859375 -32.019531 15.105469 -33.527344 15.882812 -32.492188 C 16.65625 -31.460938 15.320312 -29.007812 14.847656 -28.019531 C 14.203125 -26.554688 13.386719 -25.132812 12.566406 -23.757812 L 11.40625 -21.863281 C 10.976562 -21.21875 10.414062 -20.617188 10.15625 -19.96875 C 10.328125 -20.269531 10.671875 -20.660156 10.890625 -20.917969 L 11.835938 -22.421875 C 12.566406 -23.585938 13.253906 -24.746094 13.902344 -25.953125 C 14.246094 -26.511719 14.589844 -27.15625 14.976562 -27.847656 C 14.546875 -26.941406 14.074219 -26.082031 13.601562 -25.21875 C 11.707031 -21.777344 9.511719 -18.550781 7.144531 -15.449219 C 7.917969 -18.25 8.738281 -21.046875 9.769531 -23.800781 C 10.757812 -26.382812 11.75 -29.179688 13.429688 -31.417969 Z M 9.125 -9.253906 C 10.542969 -11.234375 12.007812 -13.167969 13.6875 -14.933594 C 14.074219 -15.363281 16.226562 -17.816406 16.957031 -17.300781 C 17.644531 -16.785156 15.191406 -13.988281 14.847656 -13.601562 C 13.253906 -11.878906 11.320312 -10.113281 9.125 -9.253906 Z M 9.382812 -24.703125 C 9.898438 -25.953125 10.371094 -27.242188 10.976562 -28.535156 C 11.019531 -28.707031 11.449219 -29.265625 11.664062 -29.652344 C 11.449219 -29.09375 10.800781 -28.148438 10.714844 -27.890625 C 10.027344 -26.125 9.511719 -24.316406 8.910156 -22.507812 C 8.21875 -20.355469 7.53125 -18.292969 6.972656 -16.140625 L 7.058594 -16.484375 L 7.015625 -16.441406 C 7.015625 -16.484375 7.058594 -16.484375 7.058594 -16.527344 C 7.617188 -19.238281 8.304688 -22.121094 9.382812 -24.703125 Z M 6.285156 -24.832031 L 6.242188 -24.789062 C 6.285156 -24.789062 6.285156 -24.832031 6.285156 -24.832031 Z M 6.242188 -24.746094 L 6.242188 -24.789062 Z M 6.242188 -24.746094" transform="translate(133.445 45.115)"/></g></g></g><g fill="#FFBD59"><g><g><path d="M 11.277344 -10.585938 C 11.191406 -11.148438 10.585938 -10.976562 10.285156 -10.757812 C 9.898438 -10.5 7.746094 -7.660156 7.917969 -7.445312 C 8.046875 -7.445312 8.132812 -7.445312 8.21875 -7.53125 C 7.617188 -6.800781 6.5 -5.980469 5.679688 -5.335938 C 5.207031 -4.949219 4.046875 -3.875 3.355469 -4.21875 C 1.894531 -4.949219 4.863281 -10.113281 4.734375 -10.15625 C 4.605469 -10.199219 3.527344 -7.789062 3.3125 -7.230469 C 3.832031 -8.738281 4.519531 -10.242188 5.335938 -11.578125 C 5.292969 -11.449219 5.164062 -11.234375 5.25 -11.234375 C 5.335938 -11.191406 5.980469 -12.09375 5.851562 -12.179688 C 5.808594 -12.179688 5.722656 -12.179688 5.679688 -12.136719 C 5.808594 -12.265625 6.023438 -12.308594 6.023438 -12.566406 C 6.023438 -12.996094 5.035156 -13.429688 4.691406 -13.558594 C 3.875 -13.902344 3.054688 -13.988281 2.410156 -13.558594 C 1.550781 -13.039062 1.378906 -12.007812 1.03125 -11.105469 C 0.945312 -10.84375 0.128906 -7.789062 0.300781 -7.746094 C 0.386719 -7.789062 0.386719 -7.832031 0.429688 -7.917969 L 0.300781 -7.144531 C 0.257812 -7.144531 0.34375 -7.359375 0.257812 -7.359375 C -0.0859375 -7.359375 0 -5.808594 0.0429688 -5.59375 C 0.214844 -4.820312 0.816406 -4.261719 1.292969 -3.613281 C 1.550781 -3.226562 1.808594 -2.839844 2.195312 -2.582031 C 2.710938 -2.195312 2.367188 -2.582031 2.710938 -2.410156 L 2.625 -2.410156 C 2.582031 -2.152344 4.21875 -1.722656 4.5625 -1.765625 C 6.070312 -2.109375 7.144531 -3.960938 8.003906 -5.121094 C 8.824219 -6.15625 9.511719 -7.1875 10.242188 -8.261719 C 10.671875 -8.824219 11.449219 -9.769531 11.277344 -10.585938 Z M 3.746094 -16.011719 C 3.832031 -15.882812 3.703125 -15.710938 4.003906 -15.535156 C 4.304688 -15.40625 4.476562 -15.578125 4.734375 -15.664062 C 5.25 -15.882812 5.636719 -16.441406 6.023438 -16.785156 C 6.15625 -16.871094 5.894531 -16.828125 5.894531 -16.828125 C 6.457031 -17.34375 5.980469 -16.742188 6.5 -17.042969 C 7.015625 -17.386719 7.101562 -17.945312 7.53125 -18.421875 C 7.015625 -18.207031 6.628906 -17.902344 6.285156 -17.472656 C 5.851562 -16.914062 5.550781 -16.65625 5.078125 -16.355469 C 5.59375 -16.742188 5.851562 -17.128906 6.285156 -17.816406 C 6.414062 -17.945312 6.542969 -18.03125 6.714844 -18.121094 C 6.585938 -18.25 6.585938 -18.378906 6.757812 -18.507812 C 6.886719 -18.722656 7.144531 -18.808594 7.273438 -19.023438 C 7.488281 -19.324219 7.445312 -19.710938 7.703125 -20.011719 C 7.917969 -20.183594 8.21875 -20.3125 8.390625 -20.484375 C 8.78125 -20.832031 9.210938 -21.476562 9.039062 -22.035156 C 8.867188 -22.550781 8.433594 -23.199219 7.960938 -23.5 C 7.402344 -23.800781 6.628906 -23.929688 6.023438 -23.671875 C 5.894531 -23.628906 5.378906 -23.5 5.550781 -23.328125 C 5.59375 -23.242188 5.636719 -23.242188 5.722656 -23.242188 C 5.335938 -22.9375 4.691406 -22.421875 5.59375 -22.078125 C 5.507812 -21.992188 5.59375 -21.605469 5.59375 -21.5625 C 5.550781 -21.261719 4.949219 -19.667969 4.5625 -18.894531 L 5.078125 -19.667969 C 4.777344 -19.023438 4.433594 -18.421875 4.046875 -17.902344 C 4.304688 -18.464844 3.789062 -17.816406 3.789062 -17.6875 C 3.3125 -17.902344 3.441406 -16.570312 3.484375 -16.441406 C 3.484375 -16.398438 3.746094 -16.011719 3.746094 -16.011719 Z M 2.925781 -5.765625 L 2.925781 -5.722656 L 2.839844 -5.464844 L 2.925781 -5.808594 C 2.96875 -5.851562 2.96875 -5.851562 2.925781 -5.765625 Z M 4.347656 -18.550781 C 4.347656 -18.550781 4.433594 -18.636719 4.519531 -18.808594 Z M 3.917969 -17.730469 C 3.917969 -17.6875 3.917969 -17.6875 3.875 -17.644531 C 3.875 -17.644531 3.875 -17.6875 3.832031 -17.6875 C 3.875 -17.6875 3.875 -17.6875 3.917969 -17.730469 Z M 3.917969 -17.730469" transform="translate(153.07 45.115)"/></g></g></g><g fill="#FFBD59"><g><g><path d="M 17.214844 -10.976562 C 16.613281 -10.328125 16.226562 -9.253906 15.753906 -8.480469 C 15.019531 -7.230469 14.289062 -6.023438 13.515625 -4.820312 C 12.050781 -2.496094 10.585938 -0.128906 8.824219 1.980469 C 8.089844 2.882812 6.542969 5.078125 5.078125 4.90625 C 4.003906 4.734375 4.003906 2.882812 4.003906 2.066406 C 4.003906 1.378906 4.046875 0.6875 4.132812 0.0429688 C 4.175781 -0.34375 4.519531 -1.636719 4.304688 -1.980469 L 3.960938 -0.6875 C 4.003906 -1.203125 4.089844 -1.765625 4.21875 -2.28125 C 4.175781 -2.367188 4.5625 -3.570312 4.648438 -3.960938 C 4.863281 -4.820312 5.078125 -5.679688 5.335938 -6.542969 C 5.550781 -7.402344 5.765625 -8.21875 6.023438 -9.039062 C 6.242188 -9.8125 6.542969 -10.199219 7.015625 -10.800781 C 8.953125 -13.210938 10.714844 -15.839844 12.351562 -18.464844 C 12.953125 -19.453125 13.34375 -20.3125 14.074219 -21.132812 C 15.148438 -22.25 15.882812 -23.929688 16.570312 -25.304688 C 17.730469 -27.542969 19.28125 -30.644531 19.023438 -33.269531 L 19.023438 -33.484375 L 18.980469 -33.527344 C 18.722656 -35.207031 17.171875 -37.183594 15.277344 -36.582031 C 14.289062 -36.28125 13.558594 -35.25 12.953125 -34.515625 L 11.964844 -33.183594 C 11.75 -32.925781 11.449219 -32.277344 11.234375 -31.933594 L 11.277344 -31.976562 L 9.898438 -29.609375 L 10.242188 -30.34375 C 10.027344 -30.386719 9.082031 -28.535156 8.953125 -28.320312 C 8.480469 -27.5 8.046875 -26.683594 7.660156 -25.867188 C 6.800781 -24.144531 5.9375 -22.378906 5.378906 -20.53125 C 4.777344 -18.679688 4.089844 -16.871094 3.441406 -15.019531 C 3.097656 -14.03125 2.753906 -12.996094 2.453125 -12.007812 C 2.195312 -11.191406 1.59375 -9.855469 1.722656 -8.996094 L 1.851562 -8.996094 C 1.722656 -8.695312 1.636719 -8.390625 1.550781 -8.089844 C 1.59375 -8.347656 1.59375 -8.652344 1.636719 -8.738281 C 1.421875 -8.433594 1.464844 -7.402344 1.421875 -7.316406 C 0.859375 -4.992188 0.214844 -2.667969 0.0429688 -0.257812 C -0.0859375 2.023438 -0.0859375 5.035156 1.722656 6.714844 C 3.746094 8.566406 6.070312 7.316406 7.746094 5.722656 C 9.726562 3.789062 11.40625 1.507812 12.953125 -0.730469 C 14.375 -2.796875 15.492188 -4.992188 16.785156 -7.058594 C 17.300781 -7.917969 17.859375 -8.78125 18.121094 -9.726562 C 18.292969 -10.414062 18.207031 -12.007812 17.214844 -10.976562 Z M 11.835938 -26.382812 C 12.695312 -28.449219 13.558594 -30.558594 14.761719 -32.492188 C 15.0625 -32.96875 17 -35.550781 16.914062 -33.269531 L 16.914062 -33.226562 C 16.828125 -30.816406 15.277344 -28.277344 14.246094 -26.210938 L 12.4375 -22.851562 C 11.835938 -21.820312 10.800781 -20.53125 10.457031 -19.410156 C 10.714844 -20.097656 11.492188 -21.089844 11.878906 -21.734375 C 12.523438 -22.808594 13.082031 -23.886719 13.6875 -24.960938 C 14.675781 -26.855469 15.753906 -28.835938 16.484375 -30.902344 C 14.546875 -25.132812 10.933594 -19.753906 7.746094 -14.632812 C 8.996094 -18.421875 10.242188 -22.550781 11.835938 -26.382812 Z M 10.457031 -29.394531 C 10.890625 -30.214844 11.664062 -30.902344 12.09375 -31.675781 C 11.191406 -29.867188 10.070312 -28.234375 9.125 -26.511719 C 9.125 -26.554688 9.125 -26.640625 9.167969 -26.683594 C 9.554688 -27.628906 9.984375 -28.492188 10.457031 -29.394531 Z M 2.324219 -7.144531 C 2.28125 -7.058594 2.28125 -7.015625 2.28125 -7.015625 C 1.765625 -5.808594 1.722656 -4.175781 1.464844 -2.882812 C 1.421875 -2.582031 1.335938 -2.324219 1.335938 -2.023438 L 1.335938 -2.152344 L 1.203125 -0.773438 C 1.292969 -2.324219 1.464844 -3.917969 1.765625 -5.421875 L 1.765625 -5.378906 C 1.894531 -6.371094 2.109375 -7.273438 2.28125 -7.273438 C 2.367188 -7.316406 2.367188 -7.1875 2.324219 -7.144531 Z M 2.324219 -7.144531" transform="translate(161.205 45.115)"/></g></g></g><g fill="#FFBD59"><g><g><path d="M 17.214844 -10.976562 C 16.613281 -10.328125 16.226562 -9.253906 15.753906 -8.480469 C 15.019531 -7.230469 14.289062 -6.023438 13.515625 -4.820312 C 12.050781 -2.496094 10.585938 -0.128906 8.824219 1.980469 C 8.089844 2.882812 6.542969 5.078125 5.078125 4.90625 C 4.003906 4.734375 4.003906 2.882812 4.003906 2.066406 C 4.003906 1.378906 4.046875 0.6875 4.132812 0.0429688 C 4.175781 -0.34375 4.519531 -1.636719 4.304688 -1.980469 L 3.960938 -0.6875 C 4.003906 -1.203125 4.089844 -1.765625 4.21875 -2.28125 C 4.175781 -2.367188 4.5625 -3.570312 4.648438 -3.960938 C 4.863281 -4.820312 5.078125 -5.679688 5.335938 -6.542969 C 5.550781 -7.402344 5.765625 -8.21875 6.023438 -9.039062 C 6.242188 -9.8125 6.542969 -10.199219 7.015625 -10.800781 C 8.953125 -13.210938 10.714844 -15.839844 12.351562 -18.464844 C 12.953125 -19.453125 13.34375 -20.3125 14.074219 -21.132812 C 15.148438 -22.25 15.882812 -23.929688 16.570312 -25.304688 C 17.730469 -27.542969 19.28125 -30.644531 19.023438 -33.269531 L 19.023438 -33.484375 L 18.980469 -33.527344 C 18.722656 -35.207031 17.171875 -37.183594 15.277344 -36.582031 C 14.289062 -36.28125 13.558594 -35.25 12.953125 -34.515625 L 11.964844 -33.183594 C 11.75 -32.925781 11.449219 -32.277344 11.234375 -31.933594 L 11.277344 -31.976562 L 9.898438 -29.609375 L 10.242188 -30.34375 C 10.027344 -30.386719 9.082031 -28.535156 8.953125 -28.320312 C 8.480469 -27.5 8.046875 -26.683594 7.660156 -25.867188 C 6.800781 -24.144531 5.9375 -22.378906 5.378906 -20.53125 C 4.777344 -18.679688 4.089844 -16.871094 3.441406 -15.019531 C 3.097656 -14.03125 2.753906 -12.996094 2.453125 -12.007812 C 2.195312 -11.191406 1.59375 -9.855469 1.722656 -8.996094 L 1.851562 -8.996094 C 1.722656 -8.695312 1.636719 -8.390625 1.550781 -8.089844 C 1.59375 -8.347656 1.59375 -8.652344 1.636719 -8.738281 C 1.421875 -8.433594 1.464844 -7.402344 1.421875 -7.316406 C 0.859375 -4.992188 0.214844 -2.667969 0.0429688 -0.257812 C -0.0859375 2.023438 -0.0859375 5.035156 1.722656 6.714844 C 3.746094 8.566406 6.070312 7.316406 7.746094 5.722656 C 9.726562 3.789062 11.40625 1.507812 12.953125 -0.730469 C 14.375 -2.796875 15.492188 -4.992188 16.785156 -7.058594 C 17.300781 -7.917969 17.859375 -8.78125 18.121094 -9.726562 C 18.292969 -10.414062 18.207031 -12.007812 17.214844 -10.976562 Z M 11.835938 -26.382812 C 12.695312 -28.449219 13.558594 -30.558594 14.761719 -32.492188 C 15.0625 -32.96875 17 -35.550781 16.914062 -33.269531 L 16.914062 -33.226562 C 16.828125 -30.816406 15.277344 -28.277344 14.246094 -26.210938 L 12.4375 -22.851562 C 11.835938 -21.820312 10.800781 -20.53125 10.457031 -19.410156 C 10.714844 -20.097656 11.492188 -21.089844 11.878906 -21.734375 C 12.523438 -22.808594 13.082031 -23.886719 13.6875 -24.960938 C 14.675781 -26.855469 15.753906 -28.835938 16.484375 -30.902344 C 14.546875 -25.132812 10.933594 -19.753906 7.746094 -14.632812 C 8.996094 -18.421875 10.242188 -22.550781 11.835938 -26.382812 Z M 10.457031 -29.394531 C 10.890625 -30.214844 11.664062 -30.902344 12.09375 -31.675781 C 11.191406 -29.867188 10.070312 -28.234375 9.125 -26.511719 C 9.125 -26.554688 9.125 -26.640625 9.167969 -26.683594 C 9.554688 -27.628906 9.984375 -28.492188 10.457031 -29.394531 Z M 2.324219 -7.144531 C 2.28125 -7.058594 2.28125 -7.015625 2.28125 -7.015625 C 1.765625 -5.808594 1.722656 -4.175781 1.464844 -2.882812 C 1.421875 -2.582031 1.335938 -2.324219 1.335938 -2.023438 L 1.335938 -2.152344 L 1.203125 -0.773438 C 1.292969 -2.324219 1.464844 -3.917969 1.765625 -5.421875 L 1.765625 -5.378906 C 1.894531 -6.371094 2.109375 -7.273438 2.28125 -7.273438 C 2.367188 -7.316406 2.367188 -7.1875 2.324219 -7.144531 Z M 2.324219 -7.144531" transform="translate(176.44 45.115)"/></g></g></g><g fill="#FFBD59"><g><g><path d="M 21.90625 -10.371094 C 21.863281 -11.320312 21.089844 -10.5 20.832031 -10.15625 C 20.269531 -9.339844 19.753906 -8.480469 19.238281 -7.660156 C 18.074219 -5.894531 16.914062 -4.132812 15.578125 -2.453125 C 11.148438 3.011719 14.246094 -6.714844 13.902344 -6.628906 C 13.730469 -6.585938 13.601562 -5.9375 13.558594 -5.808594 C 13.902344 -7.359375 14.546875 -9.210938 15.363281 -10.714844 C 15.839844 -11.664062 16.398438 -12.4375 15.535156 -13.472656 C 13.945312 -15.40625 12.09375 -13.644531 11.0625 -12.308594 C 10.628906 -13.945312 9.769531 -16.355469 7.660156 -16.355469 C 6.714844 -16.355469 6.15625 -15.882812 5.507812 -15.320312 C 5.121094 -15.0625 4.820312 -15.019531 4.476562 -14.71875 C 3.917969 -14.332031 3.527344 -13.730469 3.140625 -13.210938 C 1.679688 -11.0625 0.644531 -8.347656 0.171875 -5.851562 C -0.0429688 -4.648438 -0.128906 -3.3125 0.214844 -2.109375 C 0.429688 -1.421875 1.203125 0.128906 2.195312 0 C 2.238281 0 2.152344 -0.0429688 2.023438 -0.128906 C 2.625 0.0429688 3.3125 -0.0429688 3.832031 -0.386719 C 3.875 -0.300781 3.355469 -0.0859375 3.355469 -0.0859375 C 3.832031 0.644531 7.359375 -3.613281 7.617188 -4.003906 C 8.175781 -4.777344 8.566406 -5.59375 9.082031 -6.414062 C 9.46875 -7.015625 10.070312 -7.789062 10.5 -8.433594 C 10.457031 -8.132812 10.457031 -7.746094 10.457031 -7.746094 C 9.683594 -5.292969 8.953125 -2.625 9.984375 -0.0859375 C 10.457031 1.203125 11.621094 2.410156 13.082031 2.152344 C 14.375 1.9375 15.449219 0.6875 16.226562 -0.300781 C 17.171875 -1.421875 17.988281 -2.667969 18.808594 -3.960938 C 19.496094 -5.121094 20.140625 -6.285156 20.703125 -7.574219 C 21.046875 -8.390625 21.992188 -9.382812 21.90625 -10.371094 Z M 9.554688 -10.070312 C 9.339844 -9.769531 9.125 -9.46875 8.953125 -9.167969 L 7.832031 -7.574219 C 7.101562 -6.5 6.328125 -5.464844 5.507812 -4.476562 C 5.292969 -4.175781 4.261719 -2.839844 3.832031 -2.96875 C 3.183594 -3.183594 3.875 -5.421875 3.960938 -5.765625 C 4.089844 -6.371094 6.371094 -12.996094 6.972656 -13.125 C 6.199219 -13.167969 3.703125 -5.378906 3.570312 -4.734375 C 3.917969 -6.84375 4.691406 -8.910156 5.550781 -10.84375 C 6.023438 -11.835938 7.101562 -14.460938 8.523438 -14.460938 C 9.296875 -14.460938 9.46875 -12.867188 9.597656 -12.351562 C 9.554688 -12.4375 9.167969 -13.6875 9.125 -13.644531 C 8.910156 -13.472656 9.769531 -11.105469 9.769531 -10.757812 C 9.769531 -10.414062 9.769531 -10.414062 9.554688 -10.070312 Z M 10.542969 -7.960938 C 10.542969 -7.960938 10.671875 -8.566406 10.714844 -8.695312 L 10.933594 -8.996094 Z M 9.898438 -10.628906 L 9.898438 -11.0625 C 10.027344 -10.890625 10.027344 -10.757812 9.898438 -10.628906 Z M 9.898438 -10.628906" transform="translate(191.676 45.115)"/></g></g></g><g fill="#FFBD59"><g><g><path d="M 3.40625 -0.375 L 3.40625 0 L 0.53125 0 L 0.53125 -4.28125 L 3.359375 -4.28125 L 3.359375 -3.90625 L 0.953125 -3.90625 L 0.953125 -2.359375 L 3.046875 -2.359375 L 3.046875 -2.015625 L 0.953125 -2.015625 L 0.953125 -0.375 Z M 3.40625 -0.375" transform="translate(63.165 66.813)"/></g></g></g><g fill="#FFBD59"><g><g><path d="M 3.046875 -3.484375 C 2.921875 -3.617188 2.753906 -3.726562 2.546875 -3.8125 C 2.347656 -3.894531 2.125 -3.9375 1.875 -3.9375 C 1.488281 -3.9375 1.207031 -3.863281 1.03125 -3.71875 C 0.863281 -3.582031 0.78125 -3.390625 0.78125 -3.140625 C 0.78125 -3.015625 0.800781 -2.910156 0.84375 -2.828125 C 0.894531 -2.742188 0.96875 -2.671875 1.0625 -2.609375 C 1.164062 -2.546875 1.289062 -2.492188 1.4375 -2.453125 C 1.59375 -2.410156 1.769531 -2.367188 1.96875 -2.328125 C 2.195312 -2.273438 2.398438 -2.21875 2.578125 -2.15625 C 2.765625 -2.09375 2.921875 -2.015625 3.046875 -1.921875 C 3.179688 -1.835938 3.28125 -1.726562 3.34375 -1.59375 C 3.414062 -1.46875 3.453125 -1.3125 3.453125 -1.125 C 3.453125 -0.925781 3.414062 -0.753906 3.34375 -0.609375 C 3.269531 -0.460938 3.160156 -0.34375 3.015625 -0.25 C 2.878906 -0.15625 2.71875 -0.0820312 2.53125 -0.03125 C 2.34375 0.0078125 2.132812 0.03125 1.90625 0.03125 C 1.25 0.03125 0.675781 -0.171875 0.1875 -0.578125 L 0.40625 -0.921875 C 0.476562 -0.847656 0.566406 -0.773438 0.671875 -0.703125 C 0.785156 -0.628906 0.90625 -0.5625 1.03125 -0.5 C 1.164062 -0.445312 1.304688 -0.40625 1.453125 -0.375 C 1.597656 -0.351562 1.753906 -0.34375 1.921875 -0.34375 C 2.265625 -0.34375 2.53125 -0.398438 2.71875 -0.515625 C 2.914062 -0.640625 3.015625 -0.828125 3.015625 -1.078125 C 3.015625 -1.210938 2.984375 -1.320312 2.921875 -1.40625 C 2.867188 -1.5 2.785156 -1.578125 2.671875 -1.640625 C 2.566406 -1.710938 2.429688 -1.769531 2.265625 -1.8125 C 2.109375 -1.863281 1.925781 -1.914062 1.71875 -1.96875 C 1.488281 -2.019531 1.289062 -2.070312 1.125 -2.125 C 0.957031 -2.1875 0.816406 -2.257812 0.703125 -2.34375 C 0.585938 -2.425781 0.5 -2.523438 0.4375 -2.640625 C 0.375 -2.765625 0.34375 -2.910156 0.34375 -3.078125 C 0.34375 -3.273438 0.378906 -3.453125 0.453125 -3.609375 C 0.535156 -3.765625 0.644531 -3.894531 0.78125 -4 C 0.914062 -4.101562 1.070312 -4.179688 1.25 -4.234375 C 1.4375 -4.285156 1.644531 -4.3125 1.875 -4.3125 C 2.15625 -4.3125 2.40625 -4.265625 2.625 -4.171875 C 2.851562 -4.085938 3.0625 -3.96875 3.25 -3.8125 Z M 3.046875 -3.484375" transform="translate(68.944 66.813)"/></g></g></g><g fill="#FFBD59"><g><g><path d="M 0.53125 0 L 0.53125 -4.28125 L 2.3125 -4.28125 C 2.5 -4.28125 2.664062 -4.238281 2.8125 -4.15625 C 2.96875 -4.082031 3.101562 -3.984375 3.21875 -3.859375 C 3.332031 -3.734375 3.421875 -3.585938 3.484375 -3.421875 C 3.546875 -3.265625 3.578125 -3.101562 3.578125 -2.9375 C 3.578125 -2.757812 3.546875 -2.585938 3.484375 -2.421875 C 3.429688 -2.265625 3.347656 -2.125 3.234375 -2 C 3.128906 -1.875 3 -1.769531 2.84375 -1.6875 C 2.695312 -1.613281 2.53125 -1.578125 2.34375 -1.578125 L 0.953125 -1.578125 L 0.953125 0 Z M 0.953125 -1.953125 L 2.328125 -1.953125 C 2.453125 -1.953125 2.566406 -1.976562 2.671875 -2.03125 C 2.773438 -2.082031 2.863281 -2.15625 2.9375 -2.25 C 3.007812 -2.34375 3.0625 -2.445312 3.09375 -2.5625 C 3.132812 -2.6875 3.15625 -2.8125 3.15625 -2.9375 C 3.15625 -3.070312 3.128906 -3.195312 3.078125 -3.3125 C 3.035156 -3.425781 2.972656 -3.523438 2.890625 -3.609375 C 2.816406 -3.703125 2.726562 -3.773438 2.625 -3.828125 C 2.519531 -3.878906 2.410156 -3.90625 2.296875 -3.90625 L 0.953125 -3.90625 Z M 0.953125 -1.953125" transform="translate(74.71 66.813)"/></g></g></g><g fill="#FFBD59"><g><g><path d="M 1.859375 -4.28125 L 2.21875 -4.28125 L 4 0 L 3.546875 0 L 3 -1.34375 L 1.078125 -1.34375 L 0.53125 0 L 0.078125 0 Z M 2.90625 -1.671875 L 2.03125 -3.78125 L 1.15625 -1.671875 Z M 2.90625 -1.671875" transform="translate(80.567 66.813)"/></g></g></g><g fill="#FFBD59"><g><g><path d="M 0.25 -2.171875 C 0.25 -2.429688 0.296875 -2.6875 0.390625 -2.9375 C 0.484375 -3.195312 0.613281 -3.425781 0.78125 -3.625 C 0.957031 -3.820312 1.171875 -3.984375 1.421875 -4.109375 C 1.671875 -4.242188 1.957031 -4.3125 2.28125 -4.3125 C 2.664062 -4.3125 2.992188 -4.222656 3.265625 -4.046875 C 3.535156 -3.867188 3.734375 -3.644531 3.859375 -3.375 L 3.53125 -3.171875 C 3.46875 -3.304688 3.382812 -3.421875 3.28125 -3.515625 C 3.1875 -3.617188 3.082031 -3.695312 2.96875 -3.75 C 2.851562 -3.8125 2.734375 -3.851562 2.609375 -3.875 C 2.492188 -3.90625 2.378906 -3.921875 2.265625 -3.921875 C 2.003906 -3.921875 1.773438 -3.867188 1.578125 -3.765625 C 1.378906 -3.660156 1.210938 -3.523438 1.078125 -3.359375 C 0.941406 -3.191406 0.835938 -3 0.765625 -2.78125 C 0.703125 -2.570312 0.671875 -2.359375 0.671875 -2.140625 C 0.671875 -1.910156 0.710938 -1.6875 0.796875 -1.46875 C 0.878906 -1.25 0.988281 -1.054688 1.125 -0.890625 C 1.269531 -0.722656 1.441406 -0.585938 1.640625 -0.484375 C 1.835938 -0.390625 2.050781 -0.34375 2.28125 -0.34375 C 2.394531 -0.34375 2.515625 -0.359375 2.640625 -0.390625 C 2.773438 -0.421875 2.898438 -0.46875 3.015625 -0.53125 C 3.140625 -0.601562 3.25 -0.6875 3.34375 -0.78125 C 3.445312 -0.875 3.53125 -0.992188 3.59375 -1.140625 L 3.953125 -0.953125 C 3.878906 -0.796875 3.78125 -0.65625 3.65625 -0.53125 C 3.53125 -0.40625 3.390625 -0.300781 3.234375 -0.21875 C 3.085938 -0.132812 2.925781 -0.0703125 2.75 -0.03125 C 2.582031 0.0078125 2.414062 0.03125 2.25 0.03125 C 1.957031 0.03125 1.6875 -0.03125 1.4375 -0.15625 C 1.195312 -0.28125 0.988281 -0.445312 0.8125 -0.65625 C 0.632812 -0.863281 0.492188 -1.097656 0.390625 -1.359375 C 0.296875 -1.628906 0.25 -1.898438 0.25 -2.171875 Z M 0.25 -2.171875" transform="translate(86.749 66.813)"/></g></g></g><g fill="#FFBD59"><g><g><path d="M 0.53125 0 L 0.53125 -4.28125 L 0.953125 -4.28125 L 0.953125 0 Z M 0.53125 0" transform="translate(92.99 66.813)"/></g></g></g><g fill="#FFBD59"><g><g><path d="M 2.265625 0.03125 C 1.960938 0.03125 1.6875 -0.03125 1.4375 -0.15625 C 1.195312 -0.28125 0.988281 -0.441406 0.8125 -0.640625 C 0.632812 -0.847656 0.492188 -1.082031 0.390625 -1.34375 C 0.296875 -1.601562 0.25 -1.867188 0.25 -2.140625 C 0.25 -2.421875 0.300781 -2.691406 0.40625 -2.953125 C 0.507812 -3.222656 0.648438 -3.457031 0.828125 -3.65625 C 1.015625 -3.851562 1.226562 -4.007812 1.46875 -4.125 C 1.71875 -4.25 1.984375 -4.3125 2.265625 -4.3125 C 2.566406 -4.3125 2.835938 -4.25 3.078125 -4.125 C 3.328125 -4 3.539062 -3.832031 3.71875 -3.625 C 3.894531 -3.414062 4.03125 -3.179688 4.125 -2.921875 C 4.21875 -2.671875 4.265625 -2.410156 4.265625 -2.140625 C 4.265625 -1.847656 4.210938 -1.570312 4.109375 -1.3125 C 4.015625 -1.050781 3.875 -0.820312 3.6875 -0.625 C 3.507812 -0.425781 3.296875 -0.265625 3.046875 -0.140625 C 2.804688 -0.0234375 2.546875 0.03125 2.265625 0.03125 Z M 0.671875 -2.140625 C 0.671875 -1.910156 0.707031 -1.6875 0.78125 -1.46875 C 0.863281 -1.25 0.972656 -1.054688 1.109375 -0.890625 C 1.253906 -0.722656 1.421875 -0.585938 1.609375 -0.484375 C 1.804688 -0.390625 2.023438 -0.34375 2.265625 -0.34375 C 2.503906 -0.34375 2.722656 -0.394531 2.921875 -0.5 C 3.117188 -0.601562 3.285156 -0.738281 3.421875 -0.90625 C 3.554688 -1.082031 3.660156 -1.273438 3.734375 -1.484375 C 3.804688 -1.703125 3.84375 -1.921875 3.84375 -2.140625 C 3.84375 -2.367188 3.800781 -2.59375 3.71875 -2.8125 C 3.644531 -3.03125 3.535156 -3.21875 3.390625 -3.375 C 3.253906 -3.539062 3.085938 -3.671875 2.890625 -3.765625 C 2.703125 -3.867188 2.492188 -3.921875 2.265625 -3.921875 C 2.023438 -3.921875 1.804688 -3.867188 1.609375 -3.765625 C 1.410156 -3.671875 1.242188 -3.535156 1.109375 -3.359375 C 0.972656 -3.191406 0.863281 -3 0.78125 -2.78125 C 0.707031 -2.570312 0.671875 -2.359375 0.671875 -2.140625 Z M 0.671875 -2.140625" transform="translate(96.594 66.813)"/></g></g></g><g fill="#FFBD59"><g><g><path d="M 0.25 -2.171875 C 0.25 -2.429688 0.296875 -2.6875 0.390625 -2.9375 C 0.484375 -3.195312 0.613281 -3.425781 0.78125 -3.625 C 0.957031 -3.820312 1.171875 -3.984375 1.421875 -4.109375 C 1.671875 -4.242188 1.957031 -4.3125 2.28125 -4.3125 C 2.664062 -4.3125 2.992188 -4.222656 3.265625 -4.046875 C 3.535156 -3.867188 3.734375 -3.644531 3.859375 -3.375 L 3.53125 -3.171875 C 3.46875 -3.304688 3.382812 -3.421875 3.28125 -3.515625 C 3.1875 -3.617188 3.082031 -3.695312 2.96875 -3.75 C 2.851562 -3.8125 2.734375 -3.851562 2.609375 -3.875 C 2.492188 -3.90625 2.378906 -3.921875 2.265625 -3.921875 C 2.003906 -3.921875 1.773438 -3.867188 1.578125 -3.765625 C 1.378906 -3.660156 1.210938 -3.523438 1.078125 -3.359375 C 0.941406 -3.191406 0.835938 -3 0.765625 -2.78125 C 0.703125 -2.570312 0.671875 -2.359375 0.671875 -2.140625 C 0.671875 -1.910156 0.710938 -1.6875 0.796875 -1.46875 C 0.878906 -1.25 0.988281 -1.054688 1.125 -0.890625 C 1.269531 -0.722656 1.441406 -0.585938 1.640625 -0.484375 C 1.835938 -0.390625 2.050781 -0.34375 2.28125 -0.34375 C 2.394531 -0.34375 2.515625 -0.359375 2.640625 -0.390625 C 2.773438 -0.421875 2.898438 -0.46875 3.015625 -0.53125 C 3.140625 -0.601562 3.25 -0.6875 3.34375 -0.78125 C 3.445312 -0.875 3.53125 -0.992188 3.59375 -1.140625 L 3.953125 -0.953125 C 3.878906 -0.796875 3.78125 -0.65625 3.65625 -0.53125 C 3.53125 -0.40625 3.390625 -0.300781 3.234375 -0.21875 C 3.085938 -0.132812 2.925781 -0.0703125 2.75 -0.03125 C 2.582031 0.0078125 2.414062 0.03125 2.25 0.03125 C 1.957031 0.03125 1.6875 -0.03125 1.4375 -0.15625 C 1.195312 -0.28125 0.988281 -0.445312 0.8125 -0.65625 C 0.632812 -0.863281 0.492188 -1.097656 0.390625 -1.359375 C 0.296875 -1.628906 0.25 -1.898438 0.25 -2.171875 Z M 0.25 -2.171875" transform="translate(106.874 66.813)"/></g></g></g><g fill="#FFBD59"><g><g><path d="M 2.265625 0.03125 C 1.960938 0.03125 1.6875 -0.03125 1.4375 -0.15625 C 1.195312 -0.28125 0.988281 -0.441406 0.8125 -0.640625 C 0.632812 -0.847656 0.492188 -1.082031 0.390625 -1.34375 C 0.296875 -1.601562 0.25 -1.867188 0.25 -2.140625 C 0.25 -2.421875 0.300781 -2.691406 0.40625 -2.953125 C 0.507812 -3.222656 0.648438 -3.457031 0.828125 -3.65625 C 1.015625 -3.851562 1.226562 -4.007812 1.46875 -4.125 C 1.71875 -4.25 1.984375 -4.3125 2.265625 -4.3125 C 2.566406 -4.3125 2.835938 -4.25 3.078125 -4.125 C 3.328125 -4 3.539062 -3.832031 3.71875 -3.625 C 3.894531 -3.414062 4.03125 -3.179688 4.125 -2.921875 C 4.21875 -2.671875 4.265625 -2.410156 4.265625 -2.140625 C 4.265625 -1.847656 4.210938 -1.570312 4.109375 -1.3125 C 4.015625 -1.050781 3.875 -0.820312 3.6875 -0.625 C 3.507812 -0.425781 3.296875 -0.265625 3.046875 -0.140625 C 2.804688 -0.0234375 2.546875 0.03125 2.265625 0.03125 Z M 0.671875 -2.140625 C 0.671875 -1.910156 0.707031 -1.6875 0.78125 -1.46875 C 0.863281 -1.25 0.972656 -1.054688 1.109375 -0.890625 C 1.253906 -0.722656 1.421875 -0.585938 1.609375 -0.484375 C 1.804688 -0.390625 2.023438 -0.34375 2.265625 -0.34375 C 2.503906 -0.34375 2.722656 -0.394531 2.921875 -0.5 C 3.117188 -0.601562 3.285156 -0.738281 3.421875 -0.90625 C 3.554688 -1.082031 3.660156 -1.273438 3.734375 -1.484375 C 3.804688 -1.703125 3.84375 -1.921875 3.84375 -2.140625 C 3.84375 -2.367188 3.800781 -2.59375 3.71875 -2.8125 C 3.644531 -3.03125 3.535156 -3.21875 3.390625 -3.375 C 3.253906 -3.539062 3.085938 -3.671875 2.890625 -3.765625 C 2.703125 -3.867188 2.492188 -3.921875 2.265625 -3.921875 C 2.023438 -3.921875 1.804688 -3.867188 1.609375 -3.765625 C 1.410156 -3.671875 1.242188 -3.535156 1.109375 -3.359375 C 0.972656 -3.191406 0.863281 -3 0.78125 -2.78125 C 0.707031 -2.570312 0.671875 -2.359375 0.671875 -2.140625 Z M 0.671875 -2.140625" transform="translate(113.116 66.813)"/></g></g></g><g fill="#FFBD59"><g><g><path d="M 2.140625 -4.25 L 2.546875 -4.25 L 3.140625 -2.734375 L 3.75 -4.25 L 4.15625 -4.25 L 3.40625 -2.421875 L 4.234375 -0.484375 L 5.78125 -4.28125 L 6.25 -4.28125 L 4.421875 0 L 4.046875 0 L 3.15625 -2.109375 L 2.25 0 L 1.875 0 L 0.078125 -4.28125 L 0.53125 -4.28125 L 2.078125 -0.484375 L 2.890625 -2.421875 Z M 2.140625 -4.25" transform="translate(119.75 66.813)"/></g></g></g><g fill="#FFBD59"><g><g><path d="M 2.265625 0.03125 C 1.960938 0.03125 1.6875 -0.03125 1.4375 -0.15625 C 1.195312 -0.28125 0.988281 -0.441406 0.8125 -0.640625 C 0.632812 -0.847656 0.492188 -1.082031 0.390625 -1.34375 C 0.296875 -1.601562 0.25 -1.867188 0.25 -2.140625 C 0.25 -2.421875 0.300781 -2.691406 0.40625 -2.953125 C 0.507812 -3.222656 0.648438 -3.457031 0.828125 -3.65625 C 1.015625 -3.851562 1.226562 -4.007812 1.46875 -4.125 C 1.71875 -4.25 1.984375 -4.3125 2.265625 -4.3125 C 2.566406 -4.3125 2.835938 -4.25 3.078125 -4.125 C 3.328125 -4 3.539062 -3.832031 3.71875 -3.625 C 3.894531 -3.414062 4.03125 -3.179688 4.125 -2.921875 C 4.21875 -2.671875 4.265625 -2.410156 4.265625 -2.140625 C 4.265625 -1.847656 4.210938 -1.570312 4.109375 -1.3125 C 4.015625 -1.050781 3.875 -0.820312 3.6875 -0.625 C 3.507812 -0.425781 3.296875 -0.265625 3.046875 -0.140625 C 2.804688 -0.0234375 2.546875 0.03125 2.265625 0.03125 Z M 0.671875 -2.140625 C 0.671875 -1.910156 0.707031 -1.6875 0.78125 -1.46875 C 0.863281 -1.25 0.972656 -1.054688 1.109375 -0.890625 C 1.253906 -0.722656 1.421875 -0.585938 1.609375 -0.484375 C 1.804688 -0.390625 2.023438 -0.34375 2.265625 -0.34375 C 2.503906 -0.34375 2.722656 -0.394531 2.921875 -0.5 C 3.117188 -0.601562 3.285156 -0.738281 3.421875 -0.90625 C 3.554688 -1.082031 3.660156 -1.273438 3.734375 -1.484375 C 3.804688 -1.703125 3.84375 -1.921875 3.84375 -2.140625 C 3.84375 -2.367188 3.800781 -2.59375 3.71875 -2.8125 C 3.644531 -3.03125 3.535156 -3.21875 3.390625 -3.375 C 3.253906 -3.539062 3.085938 -3.671875 2.890625 -3.765625 C 2.703125 -3.867188 2.492188 -3.921875 2.265625 -3.921875 C 2.023438 -3.921875 1.804688 -3.867188 1.609375 -3.765625 C 1.410156 -3.671875 1.242188 -3.535156 1.109375 -3.359375 C 0.972656 -3.191406 0.863281 -3 0.78125 -2.78125 C 0.707031 -2.570312 0.671875 -2.359375 0.671875 -2.140625 Z M 0.671875 -2.140625" transform="translate(128.161 66.813)"/></g></g></g><g fill="#FFBD59"><g><g><path d="M 0.53125 0 L 0.53125 -4.28125 L 2.34375 -4.28125 C 2.53125 -4.28125 2.703125 -4.238281 2.859375 -4.15625 C 3.015625 -4.082031 3.144531 -3.984375 3.25 -3.859375 C 3.363281 -3.734375 3.453125 -3.585938 3.515625 -3.421875 C 3.578125 -3.265625 3.609375 -3.101562 3.609375 -2.9375 C 3.609375 -2.78125 3.582031 -2.628906 3.53125 -2.484375 C 3.488281 -2.347656 3.425781 -2.222656 3.34375 -2.109375 C 3.269531 -1.992188 3.171875 -1.894531 3.046875 -1.8125 C 2.929688 -1.726562 2.800781 -1.675781 2.65625 -1.65625 L 3.703125 0 L 3.234375 0 L 2.21875 -1.578125 L 0.953125 -1.578125 L 0.953125 0 Z M 0.953125 -1.953125 L 2.359375 -1.953125 C 2.484375 -1.953125 2.597656 -1.976562 2.703125 -2.03125 C 2.804688 -2.082031 2.890625 -2.15625 2.953125 -2.25 C 3.023438 -2.34375 3.082031 -2.445312 3.125 -2.5625 C 3.164062 -2.6875 3.1875 -2.8125 3.1875 -2.9375 C 3.1875 -3.0625 3.160156 -3.179688 3.109375 -3.296875 C 3.066406 -3.421875 3.003906 -3.523438 2.921875 -3.609375 C 2.847656 -3.703125 2.757812 -3.773438 2.65625 -3.828125 C 2.550781 -3.878906 2.441406 -3.90625 2.328125 -3.90625 L 0.953125 -3.90625 Z M 0.953125 -1.953125" transform="translate(134.795 66.813)"/></g></g></g><g fill="#FFBD59"><g><g><path d="M 0.53125 0 L 0.53125 -4.28125 L 0.953125 -4.28125 L 0.953125 -1.796875 L 3.3125 -4.28125 L 3.78125 -4.28125 L 2.03125 -2.40625 L 3.875 0 L 3.40625 0 L 1.765625 -2.15625 L 0.953125 -1.3125 L 0.953125 0 Z M 0.53125 0" transform="translate(140.839 66.813)"/></g></g></g><g fill="#FFBD59"><g><g><path d="M 0.53125 0 L 0.53125 -4.28125 L 0.953125 -4.28125 L 0.953125 0 Z M 0.53125 0" transform="translate(146.822 66.813)"/></g></g></g><g fill="#FFBD59"><g><g><path d="M 0.953125 -3.5 L 0.953125 0 L 0.53125 0 L 0.53125 -4.28125 L 0.859375 -4.28125 L 3.703125 -0.71875 L 3.703125 -4.28125 L 4.125 -4.28125 L 4.125 0 L 3.75 0 Z M 0.953125 -3.5" transform="translate(150.425 66.813)"/></g></g></g><g fill="#FFBD59"><g><g><path d="M 3.625 -0.625 C 3.226562 -0.1875 2.769531 0.03125 2.25 0.03125 C 1.96875 0.03125 1.703125 -0.03125 1.453125 -0.15625 C 1.210938 -0.28125 1.003906 -0.441406 0.828125 -0.640625 C 0.648438 -0.847656 0.507812 -1.082031 0.40625 -1.34375 C 0.300781 -1.601562 0.25 -1.867188 0.25 -2.140625 C 0.25 -2.429688 0.296875 -2.707031 0.390625 -2.96875 C 0.492188 -3.226562 0.632812 -3.457031 0.8125 -3.65625 C 0.988281 -3.851562 1.195312 -4.007812 1.4375 -4.125 C 1.675781 -4.25 1.941406 -4.3125 2.234375 -4.3125 C 2.441406 -4.3125 2.628906 -4.285156 2.796875 -4.234375 C 2.972656 -4.191406 3.128906 -4.128906 3.265625 -4.046875 C 3.398438 -3.960938 3.515625 -3.863281 3.609375 -3.75 C 3.710938 -3.632812 3.796875 -3.507812 3.859375 -3.375 L 3.546875 -3.15625 C 3.398438 -3.425781 3.210938 -3.625 2.984375 -3.75 C 2.765625 -3.875 2.507812 -3.9375 2.21875 -3.9375 C 1.988281 -3.9375 1.773438 -3.882812 1.578125 -3.78125 C 1.390625 -3.675781 1.226562 -3.539062 1.09375 -3.375 C 0.957031 -3.207031 0.851562 -3.015625 0.78125 -2.796875 C 0.707031 -2.585938 0.671875 -2.367188 0.671875 -2.140625 C 0.671875 -1.898438 0.710938 -1.671875 0.796875 -1.453125 C 0.878906 -1.234375 0.992188 -1.039062 1.140625 -0.875 C 1.285156 -0.71875 1.453125 -0.585938 1.640625 -0.484375 C 1.835938 -0.390625 2.050781 -0.34375 2.28125 -0.34375 C 2.53125 -0.34375 2.765625 -0.398438 2.984375 -0.515625 C 3.210938 -0.628906 3.425781 -0.8125 3.625 -1.0625 L 3.625 -1.78125 L 2.671875 -1.78125 L 2.671875 -2.109375 L 3.984375 -2.109375 L 3.984375 0 L 3.625 0 Z M 3.625 -0.625" transform="translate(157.186 66.813)"/></g></g></g></svg>